<?xml version="1.0" encoding="utf-8"?>
<!-- Generator: Adobe Illustrator 16.0.0, SVG Export Plug-In . SVG Version: 6.00 Build 0)  -->
<!DOCTYPE svg PUBLIC "-//W3C//DTD SVG 1.1//EN" "http://www.w3.org/Graphics/SVG/1.1/DTD/svg11.dtd">
<svg version="1.1" id="Layer_1" xmlns="http://www.w3.org/2000/svg" xmlns:xlink="http://www.w3.org/1999/xlink" x="0px" y="0px"
	 width="512px" height="512px" viewBox="0 0 512 512" enable-background="new 0 0 512 512" xml:space="preserve">
<g>
	<g>
		<path fill="#7ECCFD" d="M83.75,308.85c-5.873-15.173-9.781-31.248-11.536-47.959c-0.864-8.188-1.152-16.365-0.936-24.503
			c0.746-27.637,7.64-54.705,20.406-79.406l-9.198-4.753c-13.414,25.955-20.786,54.538-21.578,83.858
			c-0.236,8.599,0.085,17.257,0.995,25.93c1.866,17.749,6.082,34.686,12.282,50.555c13.342,34.164,35.936,63.343,64.414,84.826
			l6.18-8.193C116.811,368.124,95.992,340.474,83.75,308.85z"/>
		<path fill="#51BBFD" d="M446.813,349.806l-0.216-0.124c-14.967,26.305-35.262,49.362-59.563,67.563
			c-30.566,22.878-67.464,38.076-108.113,42.348c-34.199,3.598-67.417-0.923-97.735-11.993l-0.079,0.216l-4.982,13.758
			l-4.766,13.156c35.196,12.75,73.494,17.418,110.763,13.499c49.991-5.253,96.677-25.349,135.008-58.122
			c22.214-18.992,40.545-41.471,54.574-66.218L446.813,349.806z"/>
		<path fill="#3BB3FC" d="M444.502,80.493l-21.886,18.704c28.708,33.533,46.691,75.052,51.366,119.515
			c4.943,46.985-5.428,92.119-27.071,130.423c-0.104,0.184-0.209,0.363-0.313,0.547l0.216,0.124l24.891,14.082
			c25.166-44.413,36.4-96.169,30.914-148.384C497.367,165.512,477.269,118.831,444.502,80.493z"/>
		<path fill="#3BB3FC" d="M450.113,221.219c-4.288-40.806-20.76-77.471-45.579-106.562l-8.046,6.875l-10.612,8.147
			c7.784,8.976,14.239,18.246,20.072,28.744c11.287,20.347,18.227,42.272,20.636,65.173c3.686,35.068-3.83,71.329-21.153,102.174
			l11.582,6.523l8.995,5.067C445.281,303.252,454.513,263.058,450.113,221.219z"/>
		<path fill="#51BBFD" d="M417.013,332.293c-0.092,0.164-0.19,0.328-0.275,0.494c-10.448,18.43-24.105,35.17-40.648,49.308
			c-3.117,2.661-6.324,5.195-9.585,7.634c-26.619,19.908-57.828,32.197-90.98,35.683c-27.816,2.924-56.399-0.56-82.652-10.068
			l-3.516,9.692c27.006,9.859,56.59,13.889,87.058,10.688c36.196-3.804,69.055-17.339,96.27-37.713
			c21.638-16.2,39.707-36.724,53.029-60.142c0.099-0.171,0.196-0.337,0.295-0.508L417.013,332.293z"/>
		<path fill="#51BBFD" d="M421.444,97.841c-6.042-6.936-12.523-13.525-19.464-19.719c-40.439-36.083-92.44-55.864-146.41-55.697
			l0.079,24.004c58.808-0.184,111.857,25.552,147.818,67c0.36,0.409,0.714,0.815,1.067,1.228l18.082-15.46
			C422.23,98.742,421.831,98.293,421.444,97.841z"/>
		<path fill="#51BBFD" d="M93.662,117.03l-4.006-3.077l-7.516-5.774c-8.033,10.462-15.025,21.516-20.976,33.029l21.323,11.021
			c5.303-10.259,11.536-20.112,18.691-29.435L93.662,117.03z"/>
		<path fill="#009EFF" d="M234.653,38.086c6.914-0.724,13.932-1.104,20.878-1.123l-0.02-5.054c-7.11,0.02-14.305,0.409-21.382,1.156
			C176.309,39.14,125.021,67.86,89.655,113.953l4.006,3.077C128.176,72.05,178.227,44.017,234.653,38.086z"/>
		<path fill="#009EFF" d="M473.982,218.711c-4.675-44.462-22.658-85.982-51.366-119.515l-18.082,15.46
			c24.819,29.091,41.291,65.756,45.579,106.562c4.399,41.839-4.832,82.033-24.105,116.142c-0.099,0.171-0.196,0.337-0.295,0.508
			c-13.322,23.418-31.392,43.941-53.029,60.142c-27.215,20.374-60.073,33.909-96.27,37.713
			c-30.468,3.201-60.052-0.828-87.058-10.688c-18.278-6.685-35.372-16.04-50.757-27.638c-28.478-21.483-51.071-50.662-64.414-84.826
			c-6.2-15.869-10.416-32.806-12.282-50.555c-0.91-8.672-1.231-17.331-0.995-25.93c0.792-29.32,8.164-57.903,21.578-83.858
			l-21.323-11.021c-15.071,29.153-23.353,61.255-24.25,94.182c-0.262,9.663,0.098,19.392,1.12,29.138
			c2.095,19.922,6.828,38.938,13.781,56.754c14.985,38.374,40.361,71.145,72.348,95.272c17.277,13.031,36.479,23.542,57.022,31.045
			c30.318,11.07,63.537,15.591,97.735,11.993c40.649-4.271,77.547-19.47,108.113-42.348c24.302-18.2,44.597-41.258,59.563-67.563
			c0.104-0.184,0.209-0.363,0.313-0.547C468.555,310.83,478.926,265.696,473.982,218.711z"/>
		<path fill="#7ECCFD" d="M51.815,321.281c-6.953-17.816-11.686-36.832-13.781-56.754c-1.021-9.746-1.381-19.475-1.12-29.138
			c0.897-32.927,9.179-65.029,24.25-94.182l-25.591-13.228C13.365,170.943,4.318,219.186,9.392,267.49
			c3.522,33.48,13.558,65.32,29.84,94.644c16.871,30.37,39.588,56.453,67.523,77.511l8.406-11.156L124,416.77l0.164-0.216
			C92.176,392.426,66.8,359.655,51.815,321.281z"/>
	</g>
	<g>
		<g>
			<g>
				<path fill="#009EFF" d="M318.461,97.18c-8.707,0-18.488,0.563-29.074,1.673l-224.234,23.86l-19.968,2.124l8.216,18.331
					l46.927,104.676c0,0,2.206,5.494,4.936,9.893c2.737,4.402,6.874,7.713,6.874,7.713c4.465,4.369,9.565,7.691,15.13,10.209
					l-13.774,1.447L99,278.631l1.532,14.494l1.676,15.951c4.989,47.48,28.767,67.744,79.498,67.744
					c9.512,0,20.433-0.662,33.402-2.023l85.874-9.027c47.969-5.035,79.524-10.83,98.877-25.539
					c24.092-18.313,24.681-46.893,21.722-75.043c-4.013-38.181-15.358-59.972-39.49-70.284l7.687-0.805l14.481-1.525l-1.513-14.488
					l-0.772-7.323C398.227,135.158,388.381,97.18,318.461,97.18L318.461,97.18z"/>
			</g>
		</g>
		<path fill="#FFFFFF" d="M201.306,197.968c-5.401,0-8.151-0.425-9.447-0.74c-0.131-0.628-0.294-1.601-0.452-3.064
			c-0.059-0.586-0.013-0.913-0.033-0.913c0.38-0.569,3.509-2.874,12-3.764l78.535-8.252c4.903-0.517,9.087-0.779,12.438-0.779
			c4.288,0,6.43,0.422,7.359,0.694c0.399,1.253,0.792,3.748,1.178,7.434l0.026,0.269c-13.231,0.995-27.176,2.413-40.832,3.889
			C233.183,195.899,213.339,197.968,201.306,197.968z"/>
		<path fill="#FFFFFF" d="M307.436,273.201c7.268,0,10.646,0.615,12.079,1.014c0.125,0.6,0.281,1.529,0.433,2.943
			c0.223,2.137-0.105,2.902-0.099,2.902c-0.432,0.555-2.821,2.449-15.215,3.748l-86.83,9.121c-3.215,0.34-6.907,0.684-9.905,0.684
			c-3.601,0-4.668-0.494-4.708-0.494c-0.052-0.053-1.8-1.965-2.828-10.688l-0.026-0.236c9.84-0.65,20.983-1.637,33.775-2.975
			C272.044,275.227,293.806,273.201,307.436,273.201z"/>
		<path fill="#FFFFFF" d="M318.461,111.753c56.728,0,65.291,25.067,69.022,60.528l0.767,7.322l-70.869,7.457
			c-1.486-14.099-3.575-21.179-23.032-21.179c-3.908,0-8.517,0.285-13.964,0.857l-78.535,8.252
			c-15.961,1.672-26.24,8.255-24.93,20.697c1.27,12.141,4.936,16.852,24.387,16.852c12.747,0,32.282-2.029,62.358-5.316
			c29.428-3.179,52.865-5.224,71.543-5.221c51.209,0,66.692,15.355,71.878,64.705c6.54,62.246-13.454,74.684-107.623,84.564
			l-85.88,9.029c-11.856,1.246-22.449,1.943-31.876,1.943c-41.84,0-60.708-13.791-65.003-54.695L115.02,291.6l70.869-7.457
			c2.298,19.455,9.113,24.043,22.011,24.043c3.384,0,7.182-0.316,11.424-0.762l86.836-9.123
			c14.999-1.572,30.148-4.779,28.275-22.662c-1.263-12.033-4.792-17.012-26.999-17.012c-14.894,0-38.193,2.242-74.849,6.098
			c-23.692,2.492-42.776,3.859-58.207,3.859c-36.806,0-52.8-7.789-60.728-26.736l-0.026,0.033L66.698,137.204l224.214-23.856
			C301.178,112.267,310.316,111.753,318.461,111.753"/>
		<polygon fill="#FF6600" points="169.757,180.907 151.177,139.132 127.033,141.672 83.536,146.249 105.441,195.483 
			118.601,225.072 		"/>
	</g>
</g>
</svg>
